# xmcd
#
# Track frame offsets:
#	150
#	26365
#	43835
#	65207
#	87865
#	111140
#	127937
#	148030
#	173757
#	195017
#
# Disc length: 2920 seconds
#
# Revision: 1
# Processed by: cddbd v1.5.2PL0 Copyright (c) Steve Scherf et al.
# Submitted via: EZCDAudioConverter 8.0.2.1
#
DISCID=800b660a
DTITLE=Đình Tuấn - Người Đã Như Mơ
DYEAR=1994
DGENRE=country
TTITLE0=Người Đã Như Mơ
TTITLE1=Quán gấm đầu làng
TTITLE2=Cánh buồm chuyển bến
TTITLE3=Sau lần hẹn cuối
TTITLE4=Mưa bụi 1
TTITLE5=Mời em về thăm quê anh
TTITLE6=Chạnh lòng
TTITLE7=Trăng về thôn Dã
TTITLE8=Vầng trán suy tư
TTITLE9=Đi tìm dĩ vãng
EXTD=
EXTT0=
EXTT1=
EXTT2=
EXTT3=
EXTT4=
EXTT5=
EXTT6=
EXTT7=
EXTT8=
EXTT9=
PLAYORDER=
